<svg width="39" height="39" viewBox="0 0 39 39" fill="none" xmlns="http://www.w3.org/2000/svg">
<path d="M19.5 0C15.6433 0 11.8731 1.14365 8.66639 3.28634C5.45963 5.42903 2.96027 8.47451 1.48436 12.0377C0.00844902 15.6008 -0.377716 19.5216 0.374696 23.3043C1.12711 27.0869 2.9843 30.5615 5.71142 33.2886C8.43855 36.0157 11.9131 37.8729 15.6957 38.6253C19.4784 39.3777 23.3992 38.9916 26.9623 37.5156C30.5255 36.0397 33.571 33.5404 35.7137 30.3336C37.8563 27.1269 39 23.3567 39 19.5C39 14.3283 36.9455 9.36837 33.2886 5.71142C29.6316 2.05446 24.6717 0 19.5 0ZM16.7143 27.2872L9.75001 20.3229L11.9655 18.1071L16.7143 22.8557L27.0354 12.5357L29.2579 14.7446L16.7143 27.2872Z" fill="url(#paint0_linear_235_161)"/>
<defs>
<linearGradient id="paint0_linear_235_161" x1="-20.6656" y1="52.0478" x2="55.6173" y2="41.1594" gradientUnits="userSpaceOnUse">
<stop stop-color="#00A6C7"/>
<stop offset="1" stop-color="#20FDA5"/>
</linearGradient>
</defs>
</svg>
