<svg width="30" height="31" viewBox="0 0 30 31" fill="none" xmlns="http://www.w3.org/2000/svg">
<g clip-path="url(#clip0_404_1132)">
<path d="M15 6.14453C20.7318 6.14453 25.9297 9.28046 29.7653 14.3741C30.0782 14.7914 30.0782 15.3744 29.7653 15.7917C25.9297 20.8914 20.7318 24.0273 15 24.0273C9.26818 24.0273 4.07027 20.8914 0.234735 15.7978C-0.0782452 15.3805 -0.0782452 14.7975 0.234735 14.3802C4.07027 9.28046 9.26818 6.14453 15 6.14453ZM14.5888 21.3823C18.3937 21.6217 21.5357 18.4857 21.2964 14.6748C21.1 11.5327 18.5532 8.98589 15.4112 8.78951C11.6063 8.55018 8.46425 11.6861 8.70359 15.4971C8.90611 18.633 11.4529 21.1798 14.5888 21.3823ZM14.7791 18.4735C16.8288 18.6023 18.5226 16.9147 18.3875 14.865C18.2832 13.1712 16.9086 11.8027 15.2148 11.6922C13.1651 11.5634 11.4713 13.251 11.6063 15.3007C11.7168 17.0006 13.0914 18.3691 14.7791 18.4735Z" fill="white"/>
</g>
<defs>
<clipPath id="clip0_404_1132">
<rect width="30" height="30" fill="white" transform="matrix(-1 0 0 1 30 0.0859375)"/>
</clipPath>
</defs>
</svg>
