<svg width="25" height="29" viewBox="0 0 25 29" fill="none" xmlns="http://www.w3.org/2000/svg">
<path d="M14.7305 0.965124C14.6053 0.785083 14.4284 0.647251 14.2232 0.569822C14.018 0.492393 13.7942 0.479009 13.5812 0.531436C9.81898 1.46387 3.10765 5.18274 4.6364 12.5663C5.3303 15.9165 4.49545 16.5887 4.39787 16.6538C4.30029 16.7189 3.70397 16.6538 3.38954 16.4803C3.13355 16.3285 2.92554 16.1076 2.78938 15.843C2.65322 15.5783 2.59443 15.2806 2.61975 14.9841C2.65962 14.8474 2.67217 14.7042 2.65669 14.5627C2.64122 14.4211 2.59802 14.284 2.52955 14.1592C2.46109 14.0343 2.36871 13.9242 2.25769 13.8351C2.14666 13.7459 2.01917 13.6795 1.88248 13.6397C1.74579 13.5998 1.60259 13.5872 1.46105 13.6027C1.31951 13.6182 1.18241 13.6614 1.05757 13.7299C0.932724 13.7983 0.822589 13.8907 0.733449 14.0017C0.644309 14.1128 0.577912 14.2403 0.538045 14.3769C0.0204208 15.8532 -0.1267 17.434 0.109612 18.9804C0.345924 20.5268 0.958435 21.9916 1.89332 23.2459C3.03402 24.9202 4.57932 26.2792 6.38571 27.1966C8.19211 28.114 10.201 28.5601 12.2259 28.4935C17.7121 28.4935 23.5777 25.6854 24.3258 20.4052C25.4643 12.3603 21.3551 10.4629 21.1708 10.387C20.9641 10.2881 20.7313 10.2572 20.506 10.2988C20.2806 10.3404 20.0742 10.4524 19.9165 10.6186C19.7587 10.7848 19.6576 10.9967 19.6278 11.2239C19.598 11.4511 19.6409 11.6819 19.7504 11.8832C20.1123 12.5979 20.1898 13.4231 19.9673 14.1926C19.8954 14.3504 19.8004 14.4965 19.6854 14.6263C19.4469 12.4037 17.7446 9.92079 14.698 7.43792C12.3994 5.57306 14.6004 2.33124 14.698 2.20114C14.8287 2.02298 14.9019 1.80912 14.9077 1.58822C14.9135 1.36732 14.8517 1.14991 14.7305 0.965124ZM14.9582 25.2408C14.763 25.9022 13.9824 26.1733 13.1475 26.2708C12.7572 26.2708 12.356 26.325 11.944 26.325C11.0658 26.325 10.0575 26.1407 9.68887 25.5769C9.03834 24.6011 10.0683 22.1833 10.7731 20.4269C11.0116 19.8739 11.2285 19.3427 11.4128 18.8765C13.527 20.7413 15.4136 23.7229 14.9582 25.2408ZM17.3868 16.1117C17.3093 16.2984 17.2855 16.5032 17.3182 16.7027C17.3509 16.9023 17.4388 17.0887 17.5719 17.241C17.7049 17.3932 17.8779 17.5052 18.0713 17.5643C18.2647 17.6234 18.4708 17.6272 18.6662 17.5754C19.3772 17.4443 20.0477 17.1485 20.6238 16.7117C21.1999 16.2749 21.6657 15.7092 21.9839 15.06V14.9841C22.4111 16.6679 22.4776 18.4229 22.1791 20.1341C21.8755 22.2375 20.2167 24.3518 17.1158 25.5553C17.6579 22.4327 14.2101 17.9657 11.4236 16.2093C11.267 16.1102 11.0877 16.053 10.9027 16.043C10.7177 16.0329 10.5332 16.0705 10.3668 16.1521C10.2005 16.2336 10.0578 16.3564 9.95239 16.5088C9.84699 16.6612 9.78239 16.838 9.76476 17.0224C9.54779 17.9326 9.23146 18.8161 8.82149 19.6571C8.03001 21.5328 7.15179 23.5928 7.35779 25.3384C5.88368 24.5731 4.62119 23.4558 3.68228 22.0857C2.89578 20.9804 2.38974 19.7004 2.20774 18.356C2.69437 18.7194 3.27849 18.929 3.8851 18.958C4.49171 18.9869 5.09315 18.834 5.6122 18.5187C6.59884 17.8573 7.59632 16.2201 6.76147 12.1868C5.76399 7.37287 9.25518 4.78158 11.7597 3.5781C11.4224 4.56615 11.3953 5.63375 11.6821 6.63765C11.9689 7.64154 12.5559 8.53368 13.3644 9.19436C16.617 11.7748 18.1241 14.3878 17.3868 16.1117Z" fill="white"/>
</svg>
