<svg width="20" height="20" viewBox="0 0 20 20" fill="none" xmlns="http://www.w3.org/2000/svg">
<path d="M18.7473 1.69141H1.25271C0.561877 1.69141 0 2.25332 0 2.94411C0 3.6349 0.561877 4.19682 1.25271 4.19682H18.7473C19.4381 4.19682 20 3.63494 20 2.94411C20 2.25328 19.4378 1.69141 18.7473 1.69141Z" fill="white"/>
<path d="M18.7479 6.30859H10.1531C9.46231 6.30859 8.90039 6.87047 8.90039 7.5613C8.90039 8.25213 9.46227 8.81401 10.1531 8.81401H18.7479C19.4387 8.81401 20.0006 8.25213 20.0006 7.5613C20.0006 6.87047 19.4385 6.30859 18.7479 6.30859Z" fill="white"/>
<path d="M18.7479 10.9258H10.1531C9.46231 10.9258 8.90039 11.4876 8.90039 12.1785C8.90039 12.8693 9.46227 13.4312 10.1531 13.4312H18.7479C19.4387 13.4312 20.0006 12.8693 20.0006 12.1785C20.0006 11.4876 19.4385 10.9258 18.7479 10.9258Z" fill="white"/>
<path d="M18.7473 15.8047H1.25271C0.561877 15.8047 0 16.3665 0 17.0573C0 17.7482 0.561877 18.3103 1.25271 18.3103H18.7473C19.4381 18.3103 20 17.7482 20 17.0573C20 16.3665 19.4378 15.8047 18.7473 15.8047Z" fill="white"/>
<path d="M0.71202 10.4836L6.57797 13.8305C7.04579 14.0974 7.42487 13.8771 7.42487 13.3385V6.66201C7.42487 6.12344 7.04555 5.90311 6.57797 6.17009L0.71202 9.51714C0.244431 9.78393 0.244431 10.2169 0.71202 10.4836Z" fill="white"/>
</svg>
