<svg width="30" height="30" viewBox="0 0 30 30" fill="none" xmlns="http://www.w3.org/2000/svg">
<path d="M25.6225 19.375H4.375V25.625H25.6225V19.375ZM27.4306 18.0899L27.4576 18.167L27.4865 18.2931L27.4976 18.4164V26.5625C27.4976 27.0371 27.1449 27.4294 26.6874 27.4915L26.5601 27.5H3.4375C2.96287 27.5 2.57064 27.1473 2.50856 26.6898L2.5 26.5625V18.4383L2.5023 18.3721L2.51589 18.2653C2.52856 18.198 2.54801 18.134 2.57367 18.0734L6.0228 10.5501C6.15646 10.2585 6.42806 10.0585 6.73941 10.0131L6.875 10.0033L10.0498 10.0023L9.06361 11.7151L8.97852 11.8773L7.47625 11.8775L4.8975 17.4998H25.0875L22.5535 12.0673L23.6315 10.1957C23.7147 10.2593 23.7876 10.337 23.8464 10.4264L23.9121 10.5444L27.4306 18.0899ZM16.7065 2.56958L16.8207 2.62579L23.3059 6.3797C23.7161 6.61715 23.8791 7.11903 23.7045 7.54662L23.6484 7.66114L20.14 13.7513L21.5625 13.752C22.0802 13.752 22.5 14.1718 22.5 14.6895C22.5 15.1641 22.1472 15.5564 21.6897 15.6185L21.5625 15.627L19.06 15.6263L19.0589 15.63H13.9614L13.9575 15.6263L8.4375 15.627C7.91974 15.627 7.5 15.2073 7.5 14.6895C7.5 14.2149 7.85269 13.8226 8.31029 13.7606L8.4375 13.752L10.7162 13.7513L10.4893 13.6204C10.0791 13.3829 9.91606 12.881 10.0907 12.4534L10.1468 12.3389L15.5426 2.96922C15.7794 2.55793 16.28 2.39448 16.7065 2.56958ZM16.6949 4.71913L12.2348 12.464L14.4575 13.7513H17.9787L21.56 7.53524L16.6949 4.71913Z" fill="white"/>
</svg>
